G04 Layer_Physical_Order=2*
G04 Layer_Color=16711680*
%FSLAX42Y42*%
%MOMM*%
%TF.FileFunction,Copper,L2,Bot,Signal*%
%TF.Part,Single*%
G01*
G75*
%TA.AperFunction,Conductor*%
%ADD10C,0.76*%
%ADD11C,1.00*%
%TA.AperFunction,ViaPad*%
%ADD12C,1.52*%
%TA.AperFunction,ComponentPad*%
%ADD13R,1.91X1.91*%
%ADD14C,1.91*%
%ADD15O,3.66X1.83*%
%ADD16R,1.91X1.91*%
%ADD17C,1.78*%
%ADD18R,1.78X1.78*%
G36*
X4169Y0D02*
X-0Y-0D01*
X-0Y1907D01*
X0Y1907D01*
X25Y1916D01*
X117Y1825D01*
X135Y1811D01*
X157Y1802D01*
X168Y1801D01*
X179Y1799D01*
X712D01*
X735Y1802D01*
X757Y1811D01*
X775Y1825D01*
X842Y1892D01*
X856Y1910D01*
X857Y1911D01*
X861Y1912D01*
X871Y1905D01*
X874Y1876D01*
X872Y1872D01*
X851Y1845D01*
X837Y1810D01*
X832Y1774D01*
X837Y1737D01*
X851Y1702D01*
X874Y1673D01*
X903Y1650D01*
X938Y1636D01*
X975Y1631D01*
X1157D01*
X1194Y1636D01*
X1229Y1650D01*
X1258Y1673D01*
X1281Y1702D01*
X1295Y1737D01*
X1300Y1774D01*
X1295Y1810D01*
X1281Y1845D01*
X1258Y1874D01*
X1245Y1884D01*
Y1917D01*
X1258Y1927D01*
X1281Y1956D01*
X1295Y1991D01*
X1300Y2027D01*
X1295Y2064D01*
X1281Y2099D01*
X1258Y2128D01*
X1245Y2138D01*
Y2171D01*
X1258Y2181D01*
X1281Y2210D01*
X1295Y2245D01*
X1300Y2282D01*
X1295Y2318D01*
X1281Y2353D01*
X1258Y2382D01*
X1245Y2392D01*
Y2425D01*
X1258Y2435D01*
X1281Y2464D01*
X1295Y2499D01*
X1300Y2535D01*
X1295Y2572D01*
X1281Y2607D01*
X1258Y2636D01*
X1245Y2646D01*
Y2679D01*
X1258Y2689D01*
X1281Y2718D01*
X1295Y2753D01*
X1300Y2790D01*
X1295Y2826D01*
X1281Y2861D01*
X1258Y2890D01*
X1245Y2900D01*
Y2933D01*
X1258Y2943D01*
X1281Y2972D01*
X1295Y3007D01*
X1300Y3043D01*
X1295Y3080D01*
X1281Y3115D01*
X1258Y3144D01*
X1245Y3154D01*
Y3187D01*
X1258Y3197D01*
X1281Y3226D01*
X1295Y3261D01*
X1300Y3297D01*
X1295Y3334D01*
X1281Y3369D01*
X1258Y3398D01*
X1245Y3408D01*
Y3441D01*
X1258Y3451D01*
X1281Y3480D01*
X1295Y3515D01*
X1300Y3551D01*
X1295Y3588D01*
X1281Y3623D01*
X1258Y3652D01*
X1250Y3659D01*
X1259Y3684D01*
X3159Y3684D01*
X3168Y3659D01*
X3160Y3652D01*
X3150Y3640D01*
X1968D01*
X1945Y3637D01*
X1924Y3628D01*
X1905Y3614D01*
X1787Y3496D01*
X1773Y3477D01*
X1764Y3456D01*
X1761Y3433D01*
Y905D01*
X1751Y895D01*
X985D01*
X974Y893D01*
X963Y892D01*
X941Y883D01*
X923Y869D01*
X814Y760D01*
X800Y741D01*
X791Y720D01*
X788Y697D01*
Y552D01*
X773Y541D01*
X750Y510D01*
X735Y475D01*
X730Y437D01*
X735Y399D01*
X750Y364D01*
X773Y333D01*
X803Y310D01*
X839Y295D01*
X877Y290D01*
X914Y295D01*
X950Y310D01*
X980Y333D01*
X1003Y364D01*
X1004Y365D01*
X1032Y367D01*
X1044Y351D01*
X1070Y332D01*
X1099Y319D01*
X1106Y319D01*
Y437D01*
Y555D01*
X1099Y555D01*
X1070Y542D01*
X1044Y523D01*
X1032Y507D01*
X1004Y509D01*
X1003Y510D01*
X980Y541D01*
X965Y552D01*
Y660D01*
X1022Y717D01*
X1788D01*
X1810Y720D01*
X1832Y729D01*
X1850Y743D01*
X1912Y805D01*
X1926Y824D01*
X1935Y845D01*
X1937Y857D01*
X1938Y868D01*
Y3396D01*
X2005Y3463D01*
X3150D01*
X3160Y3451D01*
X3173Y3441D01*
Y3408D01*
X3160Y3398D01*
X3150Y3386D01*
X2218D01*
X2195Y3383D01*
X2174Y3374D01*
X2155Y3360D01*
X2016Y3221D01*
X2002Y3202D01*
X1993Y3181D01*
X1991Y3169D01*
X1990Y3158D01*
Y552D01*
X1975Y541D01*
X1952Y510D01*
X1937Y475D01*
X1932Y437D01*
X1937Y399D01*
X1952Y364D01*
X1975Y333D01*
X2005Y310D01*
X2041Y295D01*
X2078Y290D01*
X2116Y295D01*
X2152Y310D01*
X2162Y318D01*
X2187Y305D01*
Y292D01*
X2478D01*
Y348D01*
X2912D01*
X2923Y333D01*
X2953Y310D01*
X2989Y295D01*
X3026Y290D01*
X3064Y295D01*
X3100Y310D01*
X3130Y333D01*
X3153Y364D01*
X3154Y365D01*
X3182Y367D01*
X3194Y351D01*
X3220Y332D01*
X3249Y319D01*
X3256Y319D01*
Y437D01*
X3306D01*
Y319D01*
X3312Y319D01*
X3341Y332D01*
X3364Y349D01*
X3375Y346D01*
X3389Y339D01*
Y292D01*
X3680D01*
Y336D01*
X3737D01*
X3763Y340D01*
X3787Y350D01*
X3808Y366D01*
X3914Y472D01*
X3930Y493D01*
X3940Y517D01*
X3943Y543D01*
Y1381D01*
X3981D01*
Y1659D01*
X3943D01*
Y1706D01*
X3940Y1732D01*
X3930Y1756D01*
X3914Y1777D01*
X3846Y1845D01*
X3825Y1861D01*
X3801Y1871D01*
X3775Y1874D01*
X3544D01*
X3544Y1874D01*
X3515Y1897D01*
X3519Y1923D01*
X3521Y1927D01*
X3776D01*
X3785Y1920D01*
X3813Y1909D01*
X3818Y1908D01*
Y2020D01*
Y2132D01*
X3813Y2131D01*
X3805Y2128D01*
X3521D01*
X3519Y2132D01*
X3515Y2158D01*
X3544Y2181D01*
X3567Y2210D01*
X3581Y2245D01*
X3586Y2282D01*
X3581Y2318D01*
X3567Y2353D01*
X3544Y2382D01*
X3531Y2392D01*
Y2425D01*
X3544Y2435D01*
X3567Y2464D01*
X3581Y2499D01*
X3586Y2535D01*
X3581Y2572D01*
X3567Y2607D01*
X3544Y2636D01*
X3531Y2646D01*
Y2679D01*
X3544Y2689D01*
X3567Y2718D01*
X3581Y2753D01*
X3586Y2790D01*
X3581Y2826D01*
X3567Y2861D01*
X3544Y2890D01*
X3531Y2900D01*
Y2933D01*
X3544Y2943D01*
X3554Y2955D01*
X3639D01*
X3662Y2958D01*
X3683Y2967D01*
X3702Y2981D01*
X3773Y3052D01*
X3787Y3071D01*
X3796Y3092D01*
X3799Y3115D01*
Y3684D01*
X4169D01*
X4169Y0D01*
D02*
G37*
G36*
X33Y3047D02*
X47Y3028D01*
X94Y2981D01*
X113Y2967D01*
X134Y2958D01*
X157Y2955D01*
X556D01*
X564Y2932D01*
X564Y2929D01*
X563Y2928D01*
X562Y2927D01*
X487Y2852D01*
X473Y2833D01*
X464Y2812D01*
X461Y2789D01*
Y2752D01*
X446Y2741D01*
X423Y2710D01*
X422Y2709D01*
X394Y2707D01*
X382Y2723D01*
X356Y2742D01*
X327Y2755D01*
X320Y2755D01*
Y2637D01*
X295D01*
Y2612D01*
X177D01*
X178Y2606D01*
X190Y2576D01*
X209Y2551D01*
X225Y2539D01*
X223Y2510D01*
X222Y2510D01*
X192Y2487D01*
X181Y2472D01*
X174D01*
X151Y2469D01*
X129Y2460D01*
X111Y2446D01*
X25Y2361D01*
X0Y2370D01*
X-0Y2370D01*
Y3062D01*
X24Y3068D01*
X33Y3047D01*
D02*
G37*
%LPC*%
G36*
X1530Y582D02*
X1239D01*
Y535D01*
X1225Y528D01*
X1214Y525D01*
X1191Y542D01*
X1162Y555D01*
X1156Y555D01*
Y437D01*
Y319D01*
X1162Y319D01*
X1191Y332D01*
X1214Y349D01*
X1225Y346D01*
X1239Y339D01*
Y292D01*
X1530D01*
Y582D01*
D02*
G37*
G36*
X3954Y1995D02*
X3868D01*
Y1908D01*
X3872Y1909D01*
X3900Y1920D01*
X3924Y1938D01*
X3942Y1962D01*
X3954Y1990D01*
X3954Y1995D01*
D02*
G37*
G36*
X3868Y2132D02*
Y2045D01*
X3954D01*
X3954Y2050D01*
X3942Y2078D01*
X3924Y2102D01*
X3900Y2120D01*
X3872Y2131D01*
X3868Y2132D01*
D02*
G37*
G36*
X270Y2755D02*
X264Y2755D01*
X235Y2742D01*
X209Y2723D01*
X190Y2698D01*
X178Y2668D01*
X177Y2662D01*
X270D01*
Y2755D01*
D02*
G37*
%LPD*%
D10*
X975Y2535D02*
X1066D01*
X795Y2356D02*
X975Y2535D01*
X795Y2352D02*
Y2356D01*
X572Y2129D02*
X795Y2352D01*
X549Y2129D02*
X572D01*
X157Y3043D02*
X1066D01*
X110Y3091D02*
X157Y3043D01*
X110Y3091D02*
Y3759D01*
X159Y3808D02*
X295D01*
X110Y3759D02*
X159Y3808D01*
X81Y2291D02*
X174Y2383D01*
X81Y1986D02*
Y2291D01*
Y1986D02*
X179Y1888D01*
X174Y2383D02*
X295D01*
X3710Y3115D02*
Y4212D01*
X3576Y4347D02*
X3710Y4212D01*
X743Y4347D02*
X3576D01*
X3352Y3043D02*
X3639D01*
X3710Y3115D01*
X624Y2864D02*
X743Y2858D01*
X549Y2789D02*
X624Y2864D01*
X549Y2637D02*
Y2789D01*
X179Y1888D02*
X712D01*
X780Y1955D01*
Y2111D01*
X950Y2282D01*
X1066D01*
X931Y2790D02*
X1066D01*
X776Y2635D02*
X931Y2790D01*
X776Y2577D02*
Y2635D01*
X582Y2383D02*
X776Y2577D01*
X549Y2383D02*
X582D01*
X1968Y3551D02*
X3352D01*
X1850Y3433D02*
X1968Y3551D01*
X1850Y868D02*
Y3433D01*
X1788Y806D02*
X1850Y868D01*
X985Y806D02*
X1788D01*
X877Y697D02*
X985Y806D01*
X877Y437D02*
Y697D01*
X2218Y3297D02*
X3352D01*
X2078Y3158D02*
X2218Y3297D01*
X2078Y437D02*
Y3158D01*
X2333Y437D02*
X3026D01*
D11*
X3281Y437D02*
Y566D01*
X2952Y894D02*
X3281Y566D01*
X2952Y894D02*
Y1941D01*
X3039Y2027D02*
X3352D01*
X2952Y1941D02*
X3039Y2027D01*
X3842Y543D02*
Y1520D01*
X3737Y437D02*
X3842Y543D01*
X3535Y437D02*
X3737D01*
X3842Y1520D02*
Y1706D01*
X3775Y1774D02*
X3842Y1706D01*
X3352Y1774D02*
X3775D01*
X3352Y2027D02*
X3835D01*
D12*
X743Y4347D02*
D03*
Y2858D02*
D03*
D13*
X2333Y437D02*
D03*
X3535Y437D02*
D03*
X1385Y437D02*
D03*
X898Y4653D02*
D03*
D14*
X2078Y437D02*
D03*
X3281Y437D02*
D03*
X3026D02*
D03*
X295Y2129D02*
D03*
X549Y2383D02*
D03*
X295D02*
D03*
X549Y2637D02*
D03*
X295D02*
D03*
X1131Y437D02*
D03*
X877D02*
D03*
X295Y4062D02*
D03*
X549D02*
D03*
X295Y3808D02*
D03*
X549D02*
D03*
X295Y3554D02*
D03*
X549D02*
D03*
X295Y3300D02*
D03*
X1659Y4653D02*
D03*
X1406D02*
D03*
X1152D02*
D03*
D15*
X1066Y3551D02*
D03*
Y3297D02*
D03*
Y3043D02*
D03*
Y2790D02*
D03*
Y2535D02*
D03*
Y2282D02*
D03*
Y2027D02*
D03*
Y1774D02*
D03*
X3352Y3551D02*
D03*
Y3297D02*
D03*
Y3043D02*
D03*
Y2790D02*
D03*
Y2535D02*
D03*
Y2282D02*
D03*
Y2027D02*
D03*
Y1774D02*
D03*
D16*
X549Y2129D02*
D03*
Y3300D02*
D03*
D17*
X3843Y2020D02*
D03*
D18*
X3842Y1520D02*
D03*
%TF.MD5,4037a2ca42edc031d9e420983e58def5*%
M02*
