M48
;Layer_Color=9474304
;FILE_FORMAT=4:2
METRIC,LZ
;TYPE=PLATED
T1F00S00C0.80
T2F00S00C0.90
T3F00S00C1.00
T4F00S00C1.02
%
T01
X000743Y002858
Y004347
T02
X003842Y00152
X003843Y00202
T03
X000877Y000437
X001131
X001385
X000549Y002129
X000295
Y002383
X000549
Y002637
X000295
Y0033
Y003554
Y003808
X000549
Y003554
Y0033
X002078Y000437
X002333
X003026Y000437
X003281
X003535
X001659Y004653
X001406
X001152
X000898
X000549Y004062
X000295
T04
X001066Y001774
Y002027
Y002282
Y002535
Y00279
Y003043
Y003297
Y003551
X003352
Y003297
Y003043
Y00279
Y002535
Y002282
Y002027
Y001774
M30
