%FSTAX42Y42*%
%MOMM*%
%SFA1B1*%

%IPPOS*%
%ADD10C,0.759998*%
%ADD11C,0.999998*%
%ADD12C,1.519997*%
%ADD13R,1.909996X1.909996*%
%ADD14C,1.909996*%
%ADD15O,3.659993X1.829996*%
%ADD16R,1.909996X1.909996*%
%ADD17C,1.779996*%
%ADD18R,1.779996X1.779996*%
%LNpcb1_copper_signal_bot-1*%
%LPD*%
G36*
X004168Y0D02*
X0D01*
Y001906*
X000024Y001915*
X000116Y001824*
X000134Y00181*
X000156Y001801*
X000167Y0018*
X000178Y001798*
X000711*
X000734Y001801*
X000756Y00181*
X000774Y001824*
X000841Y001891*
X000855Y001909*
X000856Y00191*
X00086Y001911*
X00087Y001905*
X000873Y001875*
X000871Y001871*
X00085Y001844*
X000836Y001809*
X000831Y001773*
X000836Y001736*
X00085Y001701*
X000873Y001672*
X000902Y001649*
X000937Y001635*
X000974Y00163*
X001156*
X001193Y001635*
X001228Y001649*
X001257Y001672*
X00128Y001701*
X001294Y001736*
X001299Y001773*
X001294Y001809*
X00128Y001844*
X001257Y001873*
X001244Y001883*
Y001916*
X001257Y001926*
X00128Y001955*
X001294Y00199*
X001299Y002026*
X001294Y002063*
X00128Y002098*
X001257Y002127*
X001244Y002137*
Y00217*
X001257Y00218*
X00128Y002209*
X001294Y002244*
X001299Y002281*
X001294Y002317*
X00128Y002352*
X001257Y002381*
X001244Y002391*
Y002424*
X001257Y002434*
X00128Y002463*
X001294Y002498*
X001299Y002534*
X001294Y002571*
X00128Y002606*
X001257Y002635*
X001244Y002645*
Y002678*
X001257Y002688*
X00128Y002717*
X001294Y002752*
X001299Y002789*
X001294Y002825*
X00128Y00286*
X001257Y002889*
X001244Y002899*
Y002932*
X001257Y002942*
X00128Y002971*
X001294Y003006*
X001299Y003042*
X001294Y003079*
X00128Y003114*
X001257Y003143*
X001244Y003153*
Y003186*
X001257Y003196*
X00128Y003225*
X001294Y00326*
X001299Y003296*
X001294Y003333*
X00128Y003368*
X001257Y003397*
X001244Y003407*
Y00344*
X001257Y00345*
X00128Y003479*
X001294Y003514*
X001299Y00355*
X001294Y003587*
X00128Y003622*
X001257Y003651*
X001249Y003658*
X001258Y003683*
X003158*
X003167Y003658*
X003159Y003651*
X003149Y003639*
X001967*
X001944Y003636*
X001923Y003627*
X001905Y003613*
X001786Y003495*
X001772Y003476*
X001763Y003455*
X00176Y003432*
Y000904*
X00175Y000894*
X000984*
X000973Y000892*
X000962Y000891*
X00094Y000882*
X000922Y000868*
X000813Y000759*
X000799Y00074*
X00079Y000719*
X000787Y000696*
Y000551*
X000772Y00054*
X000749Y000509*
X000734Y000474*
X000729Y000436*
X000734Y000398*
X000749Y000363*
X000772Y000332*
X000802Y000309*
X000838Y000294*
X000876Y000289*
X000913Y000294*
X000949Y000309*
X000979Y000332*
X001002Y000363*
X001003Y000364*
X001031Y000366*
X001043Y00035*
X001069Y000331*
X001098Y000318*
X001105*
Y000436*
Y000554*
X001098*
X001069Y000541*
X001043Y000522*
X001031Y000506*
X001003Y000508*
X001002Y000509*
X000979Y00054*
X000964Y000551*
Y000659*
X001021Y000716*
X001787*
X001809Y000719*
X001831Y000728*
X001849Y000742*
X001911Y000804*
X001925Y000823*
X001934Y000844*
X001936Y000856*
X001937Y000867*
Y003395*
X002004Y003462*
X003149*
X003159Y00345*
X003172Y00344*
Y003407*
X003159Y003397*
X003149Y003385*
X002217*
X002194Y003382*
X002173Y003373*
X002154Y003359*
X002015Y00322*
X002001Y003201*
X001992Y00318*
X00199Y003168*
X001989Y003157*
Y000551*
X001974Y00054*
X001951Y000509*
X001936Y000474*
X001931Y000436*
X001936Y000398*
X001951Y000363*
X001974Y000332*
X002004Y000309*
X00204Y000294*
X002077Y000289*
X002115Y000294*
X002151Y000309*
X002161Y000317*
X002186Y000304*
Y000291*
X002477*
Y000347*
X002911*
X002922Y000332*
X002952Y000309*
X002988Y000294*
X003025Y000289*
X003063Y000294*
X003099Y000309*
X003129Y000332*
X003152Y000363*
X003153Y000364*
X003181Y000366*
X003193Y00035*
X003219Y000331*
X003248Y000318*
X003255*
Y000436*
X003305*
Y000318*
X003311*
X00334Y000331*
X003363Y000348*
X003374Y000345*
X003388Y000338*
Y000291*
X003679*
Y000335*
X003736*
X003762Y000339*
X003786Y000349*
X003807Y000365*
X003913Y000471*
X003929Y000492*
X003939Y000516*
X003942Y000542*
Y00138*
X00398*
Y001658*
X003942*
Y001705*
X003939Y001731*
X003929Y001755*
X003913Y001776*
X003845Y001844*
X003824Y00186*
X0038Y00187*
X003774Y001873*
X003543*
X003514Y001896*
X003518Y001922*
X00352Y001926*
X003775*
X003784Y001919*
X003812Y001908*
X003817Y001907*
Y002019*
Y002131*
X003812Y00213*
X003804Y002127*
X00352*
X003518Y002131*
X003514Y002157*
X003543Y00218*
X003566Y002209*
X00358Y002244*
X003585Y002281*
X00358Y002317*
X003566Y002352*
X003543Y002381*
X00353Y002391*
Y002424*
X003543Y002434*
X003566Y002463*
X00358Y002498*
X003585Y002534*
X00358Y002571*
X003566Y002606*
X003543Y002635*
X00353Y002645*
Y002678*
X003543Y002688*
X003566Y002717*
X00358Y002752*
X003585Y002789*
X00358Y002825*
X003566Y00286*
X003543Y002889*
X00353Y002899*
Y002932*
X003543Y002942*
X003553Y002954*
X003638*
X003661Y002957*
X003683Y002966*
X003701Y00298*
X003772Y003051*
X003786Y00307*
X003795Y003091*
X003798Y003114*
Y003683*
X004168*
Y0*
G37*
G36*
X000032Y003046D02*
X000046Y003027D01*
X000093Y00298*
X000112Y002966*
X000133Y002957*
X000156Y002954*
X000555*
X000563Y002931*
Y002928*
X000562Y002927*
X000561Y002926*
X000486Y002851*
X000472Y002832*
X000463Y002811*
X00046Y002788*
Y002751*
X000445Y00274*
X000422Y002709*
X000421Y002708*
X000393Y002706*
X000381Y002722*
X000355Y002741*
X000326Y002754*
X000319*
Y002636*
X000294*
Y002611*
X000176*
X000177Y002605*
X000189Y002575*
X000208Y00255*
X000224Y002538*
X000222Y002509*
X000221*
X000191Y002486*
X00018Y002471*
X000173*
X00015Y002468*
X000128Y002459*
X00011Y002445*
X000024Y00236*
X0Y002369*
Y003061*
X000023Y003067*
X000032Y003046*
G37*
%LNpcb1_copper_signal_bot-2*%
%LPC*%
G36*
X001529Y000581D02*
X001238D01*
Y000534*
X001224Y000527*
X001213Y000524*
X00119Y000541*
X001161Y000554*
X001155*
Y000436*
Y000318*
X001161*
X00119Y000331*
X001213Y000348*
X001224Y000345*
X001238Y000338*
Y000291*
X001529*
Y000581*
G37*
G36*
X003953Y001994D02*
X003867D01*
Y001907*
X003871Y001908*
X003899Y001919*
X003923Y001937*
X003941Y001961*
X003953Y001989*
Y001994*
G37*
G36*
X003867Y002131D02*
Y002044D01*
X003953*
Y002049*
X003941Y002077*
X003923Y002101*
X003899Y002119*
X003871Y00213*
X003867Y002131*
G37*
G36*
X000269Y002754D02*
X000263D01*
X000234Y002741*
X000208Y002722*
X000189Y002697*
X000177Y002667*
X000176Y002661*
X000269*
Y002754*
G37*
%LNpcb1_copper_signal_bot-3*%
%LPD*%
G54D10*
X000974Y002534D02*
X001065D01*
X000794Y002355D02*
X000974Y002534D01*
X000794Y002351D02*
Y002355D01*
X000571Y002128D02*
X000794Y002351D01*
X000548Y002128D02*
X000571D01*
X000156Y003042D02*
X001065D01*
X000109Y00309D02*
X000156Y003042D01*
X000109Y00309D02*
Y003758D01*
X000158Y003807D02*
X000294D01*
X000109Y003758D02*
X000158Y003807D01*
X00008Y00229D02*
X000173Y002382D01*
X00008Y001985D02*
Y00229D01*
Y001985D02*
X000178Y001887D01*
X000173Y002382D02*
X000294D01*
X003709Y003114D02*
Y004211D01*
X003575Y004346D02*
X003709Y004211D01*
X000742Y004346D02*
X003575D01*
X003351Y003042D02*
X003638D01*
X003709Y003114*
X000623Y002863D02*
X000742Y002857D01*
X000548Y002788D02*
X000623Y002863D01*
X000548Y002636D02*
Y002788D01*
X000178Y001887D02*
X000711D01*
X000779Y001954*
Y00211*
X000949Y002281*
X001065*
X00093Y002789D02*
X001065D01*
X000775Y002634D02*
X00093Y002789D01*
X000775Y002576D02*
Y002634D01*
X000581Y002382D02*
X000775Y002576D01*
X000548Y002382D02*
X000581D01*
X001967Y00355D02*
X003351D01*
X001849Y003432D02*
X001967Y00355D01*
X001849Y000867D02*
Y003432D01*
X001787Y000805D02*
X001849Y000867D01*
X000984Y000805D02*
X001787D01*
X000876Y000696D02*
X000984Y000805D01*
X000876Y000436D02*
Y000696D01*
X002217Y003296D02*
X003351D01*
X002077Y003157D02*
X002217Y003296D01*
X002077Y000436D02*
Y003157D01*
X002332Y000436D02*
X003025D01*
G54D11*
X00328Y000436D02*
Y000565D01*
X002951Y000893D02*
X00328Y000565D01*
X002951Y000893D02*
Y00194D01*
X003038Y002026D02*
X003351D01*
X002951Y00194D02*
X003038Y002026D01*
X003841Y000542D02*
Y001519D01*
X003736Y000436D02*
X003841Y000542D01*
X003534Y000436D02*
X003736D01*
X003841Y001519D02*
Y001705D01*
X003774Y001773D02*
X003841Y001705D01*
X003351Y001773D02*
X003774D01*
X003351Y002026D02*
X003834D01*
G54D12*
X000742Y004346D03*
Y002857D03*
G54D13*
X002332Y000436D03*
X003534D03*
X001384D03*
X000897Y004652D03*
G54D14*
X002077Y000436D03*
X00328D03*
X003025D03*
X000294Y002128D03*
X000548Y002382D03*
X000294D03*
X000548Y002636D03*
X000294D03*
X00113Y000436D03*
X000876D03*
X000294Y004061D03*
X000548D03*
X000294Y003807D03*
X000548D03*
X000294Y003553D03*
X000548D03*
X000294Y003299D03*
X001658Y004652D03*
X001405D03*
X001151D03*
G54D15*
X001065Y00355D03*
Y003296D03*
Y003042D03*
Y002789D03*
Y002534D03*
Y002281D03*
Y002026D03*
Y001773D03*
X003351Y00355D03*
Y003296D03*
Y003042D03*
Y002789D03*
Y002534D03*
Y002281D03*
Y002026D03*
Y001773D03*
G54D16*
X000548Y002128D03*
Y003299D03*
G54D17*
X003842Y002019D03*
G54D18*
X003841Y001519D03*
M02*